<svg width="415" height="105" viewBox="0 0 415 105" fill="none" xmlns="http://www.w3.org/2000/svg">
<rect x="1.5" y="1.5" width="412" height="102" rx="23.5" fill="#CB33A0" stroke="black" stroke-width="3"/>
<path d="M175.976 40.36C173.12 40.36 170.72 39.832 168.776 38.776C166.832 37.72 165.368 36.22 164.384 34.276C163.4 32.332 162.908 30.028 162.908 27.364C162.908 24.676 163.436 22.36 164.492 20.416C165.548 18.448 167.06 16.936 169.028 15.88C171.02 14.8 173.408 14.26 176.192 14.26C178.04 14.26 179.66 14.512 181.052 15.016C182.444 15.496 183.668 16.204 184.724 17.14L183.176 20.74C182.408 20.14 181.676 19.66 180.98 19.3C180.284 18.94 179.564 18.688 178.82 18.544C178.076 18.376 177.212 18.292 176.228 18.292C173.444 18.292 171.332 19.084 169.892 20.668C168.476 22.228 167.768 24.472 167.768 27.4C167.768 30.328 168.44 32.56 169.784 34.096C171.152 35.632 173.288 36.4 176.192 36.4C177.176 36.4 178.16 36.304 179.144 36.112C180.152 35.92 181.136 35.644 182.096 35.284L181.232 37.228V29.632H175.292V26.248H185.084V38.452C183.908 39.052 182.504 39.52 180.872 39.856C179.24 40.192 177.608 40.36 175.976 40.36ZM198.808 40.36C195.76 40.36 193.372 39.52 191.644 37.84C189.916 36.16 189.052 33.856 189.052 30.928C189.052 29.032 189.424 27.376 190.168 25.96C190.912 24.544 191.944 23.44 193.264 22.648C194.608 21.856 196.168 21.46 197.944 21.46C199.696 21.46 201.16 21.832 202.336 22.576C203.512 23.32 204.4 24.364 205 25.708C205.624 27.052 205.936 28.624 205.936 30.424V31.612H192.688V29.236H202.732L202.12 29.74C202.12 28.06 201.76 26.776 201.04 25.888C200.344 25 199.324 24.556 197.98 24.556C196.492 24.556 195.34 25.084 194.524 26.14C193.732 27.196 193.336 28.672 193.336 30.568V31.036C193.336 33.004 193.816 34.48 194.776 35.464C195.76 36.424 197.14 36.904 198.916 36.904C199.948 36.904 200.908 36.772 201.796 36.508C202.708 36.22 203.572 35.764 204.388 35.14L205.72 38.164C204.856 38.86 203.824 39.4 202.624 39.784C201.424 40.168 200.152 40.36 198.808 40.36ZM217.453 40.36C215.293 40.36 213.661 39.796 212.557 38.668C211.453 37.54 210.901 35.848 210.901 33.592V25.204H207.409V21.82H210.901V17.176L215.401 16.024V21.82H220.261V25.204H215.401V33.304C215.401 34.552 215.641 35.428 216.121 35.932C216.601 36.436 217.261 36.688 218.101 36.688C218.557 36.688 218.941 36.652 219.253 36.58C219.589 36.508 219.913 36.412 220.225 36.292V39.856C219.817 40.024 219.361 40.144 218.857 40.216C218.377 40.312 217.909 40.36 217.453 40.36ZM240.216 40.36C238.632 40.36 237.24 39.988 236.04 39.244C234.84 38.476 233.904 37.384 233.232 35.968C232.56 34.552 232.224 32.86 232.224 30.892C232.224 28.924 232.56 27.244 233.232 25.852C233.904 24.436 234.84 23.356 236.04 22.612C237.24 21.844 238.632 21.46 240.216 21.46C241.752 21.46 243.096 21.844 244.248 22.612C245.424 23.356 246.204 24.364 246.588 25.636H246.192L246.588 21.82H250.908C250.836 22.564 250.764 23.32 250.692 24.088C250.644 24.856 250.62 25.612 250.62 26.356V40H246.156L246.12 36.256H246.552C246.168 37.504 245.388 38.5 244.212 39.244C243.036 39.988 241.704 40.36 240.216 40.36ZM241.476 36.904C242.892 36.904 244.032 36.412 244.896 35.428C245.76 34.42 246.192 32.908 246.192 30.892C246.192 28.876 245.76 27.376 244.896 26.392C244.032 25.408 242.892 24.916 241.476 24.916C240.06 24.916 238.92 25.408 238.056 26.392C237.192 27.376 236.76 28.876 236.76 30.892C236.76 32.908 237.18 34.42 238.02 35.428C238.884 36.412 240.036 36.904 241.476 36.904ZM59.5678 85V59.62H70.6558C73.4398 59.62 75.5878 60.28 77.0998 61.6C78.6358 62.92 79.4038 64.756 79.4038 67.108C79.4038 68.668 79.0558 70 78.3598 71.104C77.6878 72.208 76.7158 73.06 75.4438 73.66C74.1718 74.236 72.6718 74.524 70.9438 74.524L71.4478 73.84H72.6718C73.6798 73.84 74.5798 74.104 75.3718 74.632C76.1638 75.16 76.8118 75.964 77.3158 77.044L81.0238 85H75.9118L72.1678 76.756C71.8318 75.916 71.3158 75.364 70.6198 75.1C69.9478 74.836 69.1318 74.704 68.1718 74.704H64.2118V85H59.5678ZM64.2118 71.284H69.8998C71.5318 71.284 72.7678 70.948 73.6078 70.276C74.4718 69.58 74.9038 68.572 74.9038 67.252C74.9038 65.932 74.4718 64.936 73.6078 64.264C72.7678 63.592 71.5318 63.256 69.8998 63.256H64.2118V71.284ZM92.8121 85.36C89.7641 85.36 87.3761 84.52 85.6481 82.84C83.9201 81.16 83.0561 78.856 83.0561 75.928C83.0561 74.032 83.4281 72.376 84.1721 70.96C84.9161 69.544 85.9481 68.44 87.2681 67.648C88.6121 66.856 90.1721 66.46 91.9481 66.46C93.7001 66.46 95.1641 66.832 96.3401 67.576C97.5161 68.32 98.4041 69.364 99.0041 70.708C99.6281 72.052 99.9401 73.624 99.9401 75.424V76.612H86.6921V74.236H96.7361L96.1241 74.74C96.1241 73.06 95.7641 71.776 95.0441 70.888C94.3481 70 93.3281 69.556 91.9841 69.556C90.4961 69.556 89.3441 70.084 88.5281 71.14C87.7361 72.196 87.3401 73.672 87.3401 75.568V76.036C87.3401 78.004 87.8201 79.48 88.7801 80.464C89.7641 81.424 91.1441 81.904 92.9201 81.904C93.9521 81.904 94.9121 81.772 95.8001 81.508C96.7121 81.22 97.5761 80.764 98.3921 80.14L99.7241 83.164C98.8601 83.86 97.8281 84.4 96.6281 84.784C95.4281 85.168 94.1561 85.36 92.8121 85.36ZM112.103 85.36C110.231 85.36 108.587 84.976 107.171 84.208C105.779 83.44 104.699 82.348 103.931 80.932C103.163 79.492 102.779 77.788 102.779 75.82C102.779 73.852 103.163 72.172 103.931 70.78C104.723 69.388 105.815 68.32 107.207 67.576C108.599 66.832 110.231 66.46 112.103 66.46C113.303 66.46 114.467 66.652 115.595 67.036C116.747 67.396 117.683 67.924 118.403 68.62L117.035 71.752C116.387 71.152 115.655 70.708 114.839 70.42C114.047 70.108 113.267 69.952 112.499 69.952C110.891 69.952 109.631 70.456 108.719 71.464C107.831 72.472 107.387 73.936 107.387 75.856C107.387 77.776 107.831 79.252 108.719 80.284C109.631 81.316 110.891 81.832 112.499 81.832C113.243 81.832 114.011 81.688 114.803 81.4C115.619 81.112 116.363 80.668 117.035 80.068L118.403 83.164C117.659 83.86 116.711 84.4 115.559 84.784C114.431 85.168 113.279 85.36 112.103 85.36ZM129.748 85.36C127.876 85.36 126.256 84.976 124.888 84.208C123.52 83.44 122.452 82.348 121.684 80.932C120.94 79.516 120.568 77.836 120.568 75.892C120.568 73.948 120.94 72.28 121.684 70.888C122.452 69.472 123.52 68.38 124.888 67.612C126.256 66.844 127.876 66.46 129.748 66.46C131.62 66.46 133.24 66.844 134.608 67.612C136 68.38 137.068 69.472 137.812 70.888C138.58 72.28 138.964 73.948 138.964 75.892C138.964 77.836 138.58 79.516 137.812 80.932C137.068 82.348 136 83.44 134.608 84.208C133.24 84.976 131.62 85.36 129.748 85.36ZM129.748 81.904C131.164 81.904 132.292 81.412 133.132 80.428C133.972 79.42 134.392 77.908 134.392 75.892C134.392 73.876 133.972 72.376 133.132 71.392C132.292 70.408 131.164 69.916 129.748 69.916C128.332 69.916 127.204 70.408 126.364 71.392C125.524 72.376 125.104 73.876 125.104 75.892C125.104 77.908 125.524 79.42 126.364 80.428C127.204 81.412 128.332 81.904 129.748 81.904ZM142.844 85V71.356C142.844 70.612 142.82 69.856 142.772 69.088C142.724 68.32 142.652 67.564 142.556 66.82H146.912L147.272 70.42H146.84C147.344 69.172 148.112 68.2 149.144 67.504C150.2 66.808 151.448 66.46 152.888 66.46C154.328 66.46 155.516 66.808 156.452 67.504C157.412 68.176 158.084 69.232 158.468 70.672H157.892C158.396 69.376 159.224 68.356 160.376 67.612C161.528 66.844 162.848 66.46 164.336 66.46C166.376 66.46 167.9 67.06 168.908 68.26C169.916 69.46 170.42 71.332 170.42 73.876V85H165.92V74.056C165.92 72.616 165.68 71.584 165.2 70.96C164.72 70.312 163.952 69.988 162.896 69.988C161.648 69.988 160.664 70.432 159.944 71.32C159.224 72.184 158.864 73.36 158.864 74.848V85H154.364V74.056C154.364 72.616 154.124 71.584 153.644 70.96C153.164 70.312 152.396 69.988 151.34 69.988C150.092 69.988 149.108 70.432 148.388 71.32C147.692 72.184 147.344 73.36 147.344 74.848V85H142.844ZM175.223 85V71.356C175.223 70.612 175.199 69.856 175.151 69.088C175.103 68.32 175.031 67.564 174.935 66.82H179.291L179.651 70.42H179.219C179.723 69.172 180.491 68.2 181.523 67.504C182.579 66.808 183.827 66.46 185.267 66.46C186.707 66.46 187.895 66.808 188.831 67.504C189.791 68.176 190.463 69.232 190.847 70.672H190.271C190.775 69.376 191.603 68.356 192.755 67.612C193.907 66.844 195.227 66.46 196.715 66.46C198.755 66.46 200.279 67.06 201.287 68.26C202.295 69.46 202.799 71.332 202.799 73.876V85H198.299V74.056C198.299 72.616 198.059 71.584 197.579 70.96C197.099 70.312 196.331 69.988 195.275 69.988C194.027 69.988 193.043 70.432 192.323 71.32C191.603 72.184 191.243 73.36 191.243 74.848V85H186.743V74.056C186.743 72.616 186.503 71.584 186.023 70.96C185.543 70.312 184.775 69.988 183.719 69.988C182.471 69.988 181.487 70.432 180.767 71.32C180.071 72.184 179.723 73.36 179.723 74.848V85H175.223ZM216.386 85.36C213.338 85.36 210.95 84.52 209.222 82.84C207.494 81.16 206.63 78.856 206.63 75.928C206.63 74.032 207.002 72.376 207.746 70.96C208.49 69.544 209.522 68.44 210.842 67.648C212.186 66.856 213.746 66.46 215.522 66.46C217.274 66.46 218.738 66.832 219.914 67.576C221.09 68.32 221.978 69.364 222.578 70.708C223.202 72.052 223.514 73.624 223.514 75.424V76.612H210.266V74.236H220.31L219.698 74.74C219.698 73.06 219.338 71.776 218.618 70.888C217.922 70 216.902 69.556 215.558 69.556C214.07 69.556 212.918 70.084 212.102 71.14C211.31 72.196 210.914 73.672 210.914 75.568V76.036C210.914 78.004 211.394 79.48 212.354 80.464C213.338 81.424 214.718 81.904 216.494 81.904C217.526 81.904 218.486 81.772 219.374 81.508C220.286 81.22 221.15 80.764 221.966 80.14L223.298 83.164C222.434 83.86 221.402 84.4 220.202 84.784C219.002 85.168 217.73 85.36 216.386 85.36ZM227.325 85V71.356C227.325 70.612 227.301 69.856 227.253 69.088C227.205 68.32 227.133 67.564 227.037 66.82H231.393L231.753 70.42H231.321C231.897 69.148 232.749 68.176 233.877 67.504C235.005 66.808 236.313 66.46 237.801 66.46C239.937 66.46 241.545 67.06 242.625 68.26C243.705 69.46 244.245 71.332 244.245 73.876V85H239.745V74.092C239.745 72.628 239.457 71.584 238.881 70.96C238.329 70.312 237.489 69.988 236.361 69.988C234.969 69.988 233.865 70.42 233.049 71.284C232.233 72.148 231.825 73.3 231.825 74.74V85H227.325ZM256.072 85.36C254.488 85.36 253.084 84.988 251.86 84.244C250.66 83.476 249.724 82.384 249.052 80.968C248.38 79.552 248.044 77.86 248.044 75.892C248.044 73.924 248.38 72.244 249.052 70.852C249.724 69.436 250.66 68.356 251.86 67.612C253.084 66.844 254.488 66.46 256.072 66.46C257.584 66.46 258.916 66.832 260.068 67.576C261.244 68.296 262.024 69.28 262.408 70.528H261.94V58.504H266.44V85H262.012V81.148H262.444C262.06 82.444 261.28 83.476 260.104 84.244C258.952 84.988 257.608 85.36 256.072 85.36ZM257.332 81.904C258.748 81.904 259.888 81.412 260.752 80.428C261.616 79.42 262.048 77.908 262.048 75.892C262.048 73.876 261.616 72.376 260.752 71.392C259.888 70.408 258.748 69.916 257.332 69.916C255.916 69.916 254.764 70.408 253.876 71.392C253.012 72.376 252.58 73.876 252.58 75.892C252.58 77.908 253.012 79.42 253.876 80.428C254.764 81.412 255.916 81.904 257.332 81.904ZM278.361 85.36C276.777 85.36 275.385 84.988 274.185 84.244C272.985 83.476 272.049 82.384 271.377 80.968C270.705 79.552 270.369 77.86 270.369 75.892C270.369 73.924 270.705 72.244 271.377 70.852C272.049 69.436 272.985 68.356 274.185 67.612C275.385 66.844 276.777 66.46 278.361 66.46C279.897 66.46 281.241 66.844 282.393 67.612C283.569 68.356 284.349 69.364 284.733 70.636H284.337L284.733 66.82H289.053C288.981 67.564 288.909 68.32 288.837 69.088C288.789 69.856 288.765 70.612 288.765 71.356V85H284.301L284.265 81.256H284.697C284.313 82.504 283.533 83.5 282.357 84.244C281.181 84.988 279.849 85.36 278.361 85.36ZM279.621 81.904C281.037 81.904 282.177 81.412 283.041 80.428C283.905 79.42 284.337 77.908 284.337 75.892C284.337 73.876 283.905 72.376 283.041 71.392C282.177 70.408 281.037 69.916 279.621 69.916C278.205 69.916 277.065 70.408 276.201 71.392C275.337 72.376 274.905 73.876 274.905 75.892C274.905 77.908 275.325 79.42 276.165 80.428C277.029 81.412 278.181 81.904 279.621 81.904ZM301.441 85.36C299.281 85.36 297.649 84.796 296.545 83.668C295.441 82.54 294.889 80.848 294.889 78.592V70.204H291.397V66.82H294.889V62.176L299.389 61.024V66.82H304.249V70.204H299.389V78.304C299.389 79.552 299.629 80.428 300.109 80.932C300.589 81.436 301.249 81.688 302.089 81.688C302.545 81.688 302.929 81.652 303.241 81.58C303.577 81.508 303.901 81.412 304.213 81.292V84.856C303.805 85.024 303.349 85.144 302.845 85.216C302.365 85.312 301.897 85.36 301.441 85.36ZM307.305 85V66.82H311.805V85H307.305ZM307.053 63.4V59.008H312.057V63.4H307.053ZM324.9 85.36C323.028 85.36 321.408 84.976 320.04 84.208C318.672 83.44 317.604 82.348 316.836 80.932C316.092 79.516 315.72 77.836 315.72 75.892C315.72 73.948 316.092 72.28 316.836 70.888C317.604 69.472 318.672 68.38 320.04 67.612C321.408 66.844 323.028 66.46 324.9 66.46C326.772 66.46 328.392 66.844 329.76 67.612C331.152 68.38 332.22 69.472 332.964 70.888C333.732 72.28 334.116 73.948 334.116 75.892C334.116 77.836 333.732 79.516 332.964 80.932C332.22 82.348 331.152 83.44 329.76 84.208C328.392 84.976 326.772 85.36 324.9 85.36ZM324.9 81.904C326.316 81.904 327.444 81.412 328.284 80.428C329.124 79.42 329.544 77.908 329.544 75.892C329.544 73.876 329.124 72.376 328.284 71.392C327.444 70.408 326.316 69.916 324.9 69.916C323.484 69.916 322.356 70.408 321.516 71.392C320.676 72.376 320.256 73.876 320.256 75.892C320.256 77.908 320.676 79.42 321.516 80.428C322.356 81.412 323.484 81.904 324.9 81.904ZM337.997 85V71.356C337.997 70.612 337.973 69.856 337.925 69.088C337.877 68.32 337.805 67.564 337.709 66.82H342.065L342.425 70.42H341.993C342.569 69.148 343.421 68.176 344.549 67.504C345.677 66.808 346.985 66.46 348.473 66.46C350.609 66.46 352.217 67.06 353.297 68.26C354.377 69.46 354.917 71.332 354.917 73.876V85H350.417V74.092C350.417 72.628 350.129 71.584 349.553 70.96C349.001 70.312 348.161 69.988 347.033 69.988C345.641 69.988 344.537 70.42 343.721 71.284C342.905 72.148 342.497 73.3 342.497 74.74V85H337.997Z" fill="white"/>
</svg>
