<svg width="415" height="105" viewBox="0 0 415 105" fill="none" xmlns="http://www.w3.org/2000/svg">
<rect x="1.5" y="1.5" width="412" height="102" rx="23.5" fill="#CB33A0" stroke="black" stroke-width="3"/>
<path d="M79.1288 63.36C77.0888 63.36 75.2048 63.108 73.4768 62.604C71.7728 62.076 70.3088 61.356 69.0848 60.444L70.5248 56.808C71.3408 57.384 72.1928 57.876 73.0808 58.284C73.9688 58.668 74.9168 58.968 75.9248 59.184C76.9328 59.376 78.0008 59.472 79.1288 59.472C81.0248 59.472 82.3928 59.16 83.2328 58.536C84.0728 57.912 84.4928 57.096 84.4928 56.088C84.4928 55.2 84.2048 54.528 83.6288 54.072C83.0528 53.592 82.0208 53.196 80.5328 52.884L76.4648 52.056C74.1368 51.576 72.3968 50.772 71.2448 49.644C70.0928 48.516 69.5168 47.004 69.5168 45.108C69.5168 43.524 69.9368 42.144 70.7768 40.968C71.6168 39.792 72.7928 38.88 74.3048 38.232C75.8168 37.584 77.5808 37.26 79.5968 37.26C81.3968 37.26 83.0648 37.524 84.6008 38.052C86.1368 38.556 87.4208 39.288 88.4528 40.248L87.0128 43.704C85.9808 42.84 84.8528 42.204 83.6288 41.796C82.4048 41.364 81.0368 41.148 79.5248 41.148C77.8208 41.148 76.4888 41.484 75.5288 42.156C74.5928 42.804 74.1248 43.704 74.1248 44.856C74.1248 45.744 74.4128 46.452 74.9888 46.98C75.5888 47.508 76.5968 47.916 78.0128 48.204L82.0448 48.996C84.4448 49.476 86.2208 50.268 87.3728 51.372C88.5248 52.452 89.1008 53.916 89.1008 55.764C89.1008 57.276 88.6928 58.608 87.8768 59.76C87.0608 60.888 85.9088 61.776 84.4208 62.424C82.9328 63.048 81.1688 63.36 79.1288 63.36ZM99.668 63.36C97.436 63.36 95.768 62.748 94.664 61.524C93.56 60.3 93.008 58.428 93.008 55.908V44.82H97.508V55.872C97.508 57.216 97.784 58.212 98.336 58.86C98.888 59.484 99.728 59.796 100.856 59.796C102.128 59.796 103.16 59.364 103.952 58.5C104.768 57.636 105.176 56.496 105.176 55.08V44.82H109.676V63H105.284V59.292H105.788C105.26 60.588 104.456 61.596 103.376 62.316C102.32 63.012 101.084 63.36 99.668 63.36ZM122.985 71.064C121.305 71.064 119.781 70.884 118.413 70.524C117.069 70.164 115.869 69.612 114.813 68.868L115.785 65.628C116.481 66.084 117.201 66.456 117.945 66.744C118.689 67.032 119.457 67.248 120.249 67.392C121.041 67.536 121.845 67.608 122.661 67.608C124.341 67.608 125.589 67.188 126.405 66.348C127.245 65.532 127.665 64.356 127.665 62.82V58.464H128.025C127.641 59.712 126.861 60.708 125.685 61.452C124.533 62.196 123.201 62.568 121.689 62.568C120.057 62.568 118.629 62.208 117.405 61.488C116.205 60.744 115.269 59.688 114.597 58.32C113.925 56.952 113.589 55.344 113.589 53.496C113.589 51.648 113.925 50.052 114.597 48.708C115.269 47.34 116.205 46.296 117.405 45.576C118.629 44.832 120.057 44.46 121.689 44.46C123.225 44.46 124.557 44.832 125.685 45.576C126.837 46.296 127.605 47.28 127.989 48.528L127.665 48.312L128.025 44.82H132.381C132.285 45.564 132.213 46.32 132.165 47.088C132.117 47.856 132.093 48.612 132.093 49.356V62.28C132.093 65.136 131.313 67.308 129.753 68.796C128.217 70.308 125.961 71.064 122.985 71.064ZM122.913 59.112C124.353 59.112 125.493 58.632 126.333 57.672C127.197 56.688 127.629 55.296 127.629 53.496C127.629 51.696 127.197 50.316 126.333 49.356C125.493 48.396 124.353 47.916 122.913 47.916C121.449 47.916 120.285 48.396 119.421 49.356C118.557 50.316 118.125 51.696 118.125 53.496C118.125 55.296 118.557 56.688 119.421 57.672C120.285 58.632 121.449 59.112 122.913 59.112ZM145.38 71.064C143.7 71.064 142.176 70.884 140.808 70.524C139.464 70.164 138.264 69.612 137.208 68.868L138.18 65.628C138.876 66.084 139.596 66.456 140.34 66.744C141.084 67.032 141.852 67.248 142.644 67.392C143.436 67.536 144.24 67.608 145.056 67.608C146.736 67.608 147.984 67.188 148.8 66.348C149.64 65.532 150.06 64.356 150.06 62.82V58.464H150.42C150.036 59.712 149.256 60.708 148.08 61.452C146.928 62.196 145.596 62.568 144.084 62.568C142.452 62.568 141.024 62.208 139.8 61.488C138.6 60.744 137.664 59.688 136.992 58.32C136.32 56.952 135.984 55.344 135.984 53.496C135.984 51.648 136.32 50.052 136.992 48.708C137.664 47.34 138.6 46.296 139.8 45.576C141.024 44.832 142.452 44.46 144.084 44.46C145.62 44.46 146.952 44.832 148.08 45.576C149.232 46.296 150 47.28 150.384 48.528L150.06 48.312L150.42 44.82H154.776C154.68 45.564 154.608 46.32 154.56 47.088C154.512 47.856 154.488 48.612 154.488 49.356V62.28C154.488 65.136 153.708 67.308 152.148 68.796C150.612 70.308 148.356 71.064 145.38 71.064ZM145.308 59.112C146.748 59.112 147.888 58.632 148.728 57.672C149.592 56.688 150.024 55.296 150.024 53.496C150.024 51.696 149.592 50.316 148.728 49.356C147.888 48.396 146.748 47.916 145.308 47.916C143.844 47.916 142.68 48.396 141.816 49.356C140.952 50.316 140.52 51.696 140.52 53.496C140.52 55.296 140.952 56.688 141.816 57.672C142.68 58.632 143.844 59.112 145.308 59.112ZM168.134 63.36C165.086 63.36 162.698 62.52 160.97 60.84C159.242 59.16 158.378 56.856 158.378 53.928C158.378 52.032 158.75 50.376 159.494 48.96C160.238 47.544 161.27 46.44 162.59 45.648C163.934 44.856 165.494 44.46 167.27 44.46C169.022 44.46 170.486 44.832 171.662 45.576C172.838 46.32 173.726 47.364 174.326 48.708C174.95 50.052 175.262 51.624 175.262 53.424V54.612H162.014V52.236H172.058L171.446 52.74C171.446 51.06 171.086 49.776 170.366 48.888C169.67 48 168.65 47.556 167.306 47.556C165.818 47.556 164.666 48.084 163.85 49.14C163.058 50.196 162.662 51.672 162.662 53.568V54.036C162.662 56.004 163.142 57.48 164.102 58.464C165.086 59.424 166.466 59.904 168.242 59.904C169.274 59.904 170.234 59.772 171.122 59.508C172.034 59.22 172.898 58.764 173.714 58.14L175.046 61.164C174.182 61.86 173.15 62.4 171.95 62.784C170.75 63.168 169.478 63.36 168.134 63.36ZM185.553 63.36C183.993 63.36 182.553 63.18 181.233 62.82C179.937 62.436 178.845 61.908 177.957 61.236L179.217 58.212C180.129 58.836 181.137 59.316 182.241 59.652C183.345 59.988 184.461 60.156 185.589 60.156C186.789 60.156 187.677 59.952 188.253 59.544C188.853 59.136 189.153 58.584 189.153 57.888C189.153 57.336 188.961 56.904 188.577 56.592C188.217 56.256 187.629 56.004 186.813 55.836L183.213 55.152C181.677 54.816 180.501 54.24 179.685 53.424C178.893 52.608 178.497 51.54 178.497 50.22C178.497 49.092 178.797 48.096 179.397 47.232C180.021 46.368 180.897 45.696 182.025 45.216C183.177 44.712 184.521 44.46 186.057 44.46C187.401 44.46 188.661 44.64 189.837 45C191.037 45.36 192.045 45.9 192.861 46.62L191.565 49.536C190.821 48.936 189.969 48.468 189.009 48.132C188.049 47.796 187.113 47.628 186.201 47.628C184.953 47.628 184.041 47.856 183.465 48.312C182.889 48.744 182.601 49.308 182.601 50.004C182.601 50.532 182.769 50.976 183.105 51.336C183.465 51.672 184.017 51.924 184.761 52.092L188.361 52.776C189.969 53.088 191.181 53.64 191.997 54.432C192.837 55.2 193.257 56.256 193.257 57.6C193.257 58.8 192.933 59.832 192.285 60.696C191.637 61.56 190.737 62.22 189.585 62.676C188.433 63.132 187.089 63.36 185.553 63.36ZM204.708 63.36C202.548 63.36 200.916 62.796 199.812 61.668C198.708 60.54 198.156 58.848 198.156 56.592V48.204H194.664V44.82H198.156V40.176L202.656 39.024V44.82H207.516V48.204H202.656V56.304C202.656 57.552 202.896 58.428 203.376 58.932C203.856 59.436 204.516 59.688 205.356 59.688C205.812 59.688 206.196 59.652 206.508 59.58C206.844 59.508 207.168 59.412 207.48 59.292V62.856C207.072 63.024 206.616 63.144 206.112 63.216C205.632 63.312 205.164 63.36 204.708 63.36ZM227.472 63.36C225.888 63.36 224.496 62.988 223.296 62.244C222.096 61.476 221.16 60.384 220.488 58.968C219.816 57.552 219.48 55.86 219.48 53.892C219.48 51.924 219.816 50.244 220.488 48.852C221.16 47.436 222.096 46.356 223.296 45.612C224.496 44.844 225.888 44.46 227.472 44.46C229.008 44.46 230.352 44.844 231.504 45.612C232.68 46.356 233.46 47.364 233.844 48.636H233.448L233.844 44.82H238.164C238.092 45.564 238.02 46.32 237.948 47.088C237.9 47.856 237.876 48.612 237.876 49.356V63H233.412L233.376 59.256H233.808C233.424 60.504 232.644 61.5 231.468 62.244C230.292 62.988 228.96 63.36 227.472 63.36ZM228.732 59.904C230.148 59.904 231.288 59.412 232.152 58.428C233.016 57.42 233.448 55.908 233.448 53.892C233.448 51.876 233.016 50.376 232.152 49.392C231.288 48.408 230.148 47.916 228.732 47.916C227.316 47.916 226.176 48.408 225.312 49.392C224.448 50.376 224.016 51.876 224.016 53.892C224.016 55.908 224.436 57.42 225.276 58.428C226.14 59.412 227.292 59.904 228.732 59.904ZM253.015 63V37.62H264.139C266.899 37.62 269.023 38.208 270.511 39.384C271.999 40.536 272.743 42.144 272.743 44.208C272.743 45.744 272.287 47.04 271.375 48.096C270.463 49.152 269.203 49.86 267.595 50.22V49.68C269.443 49.944 270.871 50.616 271.879 51.696C272.911 52.752 273.427 54.156 273.427 55.908C273.427 58.164 272.647 59.916 271.087 61.164C269.527 62.388 267.355 63 264.571 63H253.015ZM257.479 59.472H264.031C265.591 59.472 266.803 59.184 267.667 58.608C268.531 58.008 268.963 57.036 268.963 55.692C268.963 54.324 268.531 53.352 267.667 52.776C266.803 52.176 265.591 51.876 264.031 51.876H257.479V59.472ZM257.479 48.384H263.347C265.003 48.384 266.227 48.084 267.019 47.484C267.835 46.86 268.243 45.948 268.243 44.748C268.243 43.548 267.835 42.648 267.019 42.048C266.227 41.424 265.003 41.112 263.347 41.112H257.479V48.384ZM285.719 63.36C283.847 63.36 282.227 62.976 280.859 62.208C279.491 61.44 278.423 60.348 277.655 58.932C276.911 57.516 276.539 55.836 276.539 53.892C276.539 51.948 276.911 50.28 277.655 48.888C278.423 47.472 279.491 46.38 280.859 45.612C282.227 44.844 283.847 44.46 285.719 44.46C287.591 44.46 289.211 44.844 290.579 45.612C291.971 46.38 293.039 47.472 293.783 48.888C294.551 50.28 294.935 51.948 294.935 53.892C294.935 55.836 294.551 57.516 293.783 58.932C293.039 60.348 291.971 61.44 290.579 62.208C289.211 62.976 287.591 63.36 285.719 63.36ZM285.719 59.904C287.135 59.904 288.263 59.412 289.103 58.428C289.943 57.42 290.363 55.908 290.363 53.892C290.363 51.876 289.943 50.376 289.103 49.392C288.263 48.408 287.135 47.916 285.719 47.916C284.303 47.916 283.175 48.408 282.335 49.392C281.495 50.376 281.075 51.876 281.075 53.892C281.075 55.908 281.495 57.42 282.335 58.428C283.175 59.412 284.303 59.904 285.719 59.904ZM307.023 63.36C305.151 63.36 303.531 62.976 302.163 62.208C300.795 61.44 299.727 60.348 298.959 58.932C298.215 57.516 297.843 55.836 297.843 53.892C297.843 51.948 298.215 50.28 298.959 48.888C299.727 47.472 300.795 46.38 302.163 45.612C303.531 44.844 305.151 44.46 307.023 44.46C308.895 44.46 310.515 44.844 311.883 45.612C313.275 46.38 314.343 47.472 315.087 48.888C315.855 50.28 316.239 51.948 316.239 53.892C316.239 55.836 315.855 57.516 315.087 58.932C314.343 60.348 313.275 61.44 311.883 62.208C310.515 62.976 308.895 63.36 307.023 63.36ZM307.023 59.904C308.439 59.904 309.567 59.412 310.407 58.428C311.247 57.42 311.667 55.908 311.667 53.892C311.667 51.876 311.247 50.376 310.407 49.392C309.567 48.408 308.439 47.916 307.023 47.916C305.607 47.916 304.479 48.408 303.639 49.392C302.799 50.376 302.379 51.876 302.379 53.892C302.379 55.908 302.799 57.42 303.639 58.428C304.479 59.412 305.607 59.904 307.023 59.904ZM320.12 63V36.504H324.62V52.56H324.692L332.072 44.82H337.508L328.328 54.432L328.364 52.632L338.156 63H332.576L324.692 54.864H324.62V63H320.12Z" fill="white"/>
</svg>
